PathFileType	4	(X/Y/Z)	Patient4_TMGait_0pt6_01_right_26.trc.trc
DataRate	CameraRate	NumFrames	NumMarkers	Units	OrigDataRate	OrigDataStartFrame	OrigNumFrames
82.840236686391	82.840236686391	4	33	mm	82.840236686391	36	       141
Frame#	Time	Sacral			L.Shoulder			Chest			R.Shoulder			Neck			R.ASIS			L.ASIS			R.Thigh.Superior			R.Thigh.Lateral			R.Thigh.Inferior			R.Patella			L.Thigh.Superior			L.Thigh.Lateral			L.Thigh.Inferior			L.Patella			L.Shank.Superior			L.Shank.Lateral			L.Shank.Inferior			R.Shank.Superior			R.Shank.Lateral			R.Shank.Inferior			R.Heel			R.Midfoot.Superior			R.Midfoot.Lateral			R.Toe			L.Heel			L.Midfoot.Lateral			L.Midfoot.Superior			L.Toe			L.Elbow			L.Wrist			R.Elbow			R.Wrist			
		X1	Y1	Z1	X2	Y2	Z2	X3	Y3	Z3	X4	Y4	Z4	X5	Y5	Z5	X6	Y6	Z6	X7	Y7	Z7	X8	Y8	Z8	X9	Y9	Z9	X10	Y10	Z10	X11	Y11	Z11	X12	Y12	Z12	X13	Y13	Z13	X14	Y14	Z14	X15	Y15	Z15	X16	Y16	Z16	X17	Y17	Z17	X18	Y18	Z18	X19	Y19	Z19	X20	Y20	Z20	X21	Y21	Z21	X22	Y22	Z22	X23	Y23	Z23	X24	Y24	Z24	X25	Y25	Z25	X26	Y26	Z26	X27	Y27	Z27	X28	Y28	Z28	X29	Y29	Z29	X30	Y30	Z30	X31	Y31	Z31	X32	Y32	Z32	X33	Y33	Z33	

36	31.462500000000	741.600211342597	997.473620596182	499.851591462851	895.366986287199	1432.301087863592	317.625095238372	999.998955298938	1367.707093946409	478.791095508862	911.404632304088	1435.443582129342	651.395931494151	874.795452611496	1491.667087522847	470.596865402676	970.977247819441	940.051559101664	614.579518421456	953.756455995962	960.679648691783	339.827555659294	1033.926347737884	750.478354567491	576.247022243597	968.567239806739	632.791675457807	638.417136316715	1048.306872513156	589.958502450130	554.509429996428	1059.313123309902	500.749950280853	560.283359433969	981.257272906398	735.186449000168	361.614124978055	881.011016483953	626.163059478462	303.362125274320	962.911915126156	537.003473364394	357.851952248702	950.931933786662	453.360873949288	357.166342629507	884.677175904878	396.284547588605	356.718052586387	744.930518727441	343.931773921866	315.453696006915	740.407573332302	217.489979522512	378.201291124849	1037.664091717923	410.168814110155	568.855239895752	975.838446629467	300.841163854662	630.986817637185	1024.328448732057	210.117966401651	567.111763689300	901.044560619831	41.546554805388	536.705035202006	1070.888409788273	98.524805710181	570.889842724407	984.762135302033	36.732162080837	611.177950501281	1192.052837551318	48.896394333463	598.755668095784	555.925455480085	134.014266329634	425.197814010390	617.939491918231	89.669453260501	349.113955580237	719.421658345580	115.232648119420	367.460725319271	811.803430431761	32.819271247947	351.271989429831	937.037703134460	1086.219923505115	187.212700132123	1158.974964234848	948.905663635010	196.719015533462	842.210430339944	1093.280345946626	766.703512543603	937.086705429683	849.614496962784	763.432858378903	
37	31.474571428571	741.999974742347	998.103282247837	503.233181875805	893.775106520262	1433.106311988880	319.789183987716	1000.055805850610	1368.495621900529	479.919189079940	913.158291051512	1436.017240875058	653.410817271659	874.787446519625	1492.351944916843	473.064755210420	972.209259975736	941.031920671664	615.939164004781	953.442088784878	961.504023592404	341.363262813451	1032.755342337881	749.515777358808	578.291465113692	965.827972988369	632.932106317788	640.267643233515	1044.698900646444	589.161661159774	556.005933580847	1054.480054619999	500.055036588019	561.399957469166	986.550871000264	737.618817020708	363.305830282743	891.059027737455	625.982978570600	304.020669284151	976.064849414114	538.721668422332	358.250791560238	965.303429145833	453.733636275554	356.728147269599	896.814106122728	396.884267127131	356.501925957069	755.067638553499	349.992797377441	315.351401618808	745.889501248845	223.758679124732	377.599320463878	1032.446652559552	409.705394879363	569.998425890939	970.186389351248	300.547139064352	631.860229925024	1017.974226267652	209.763586809576	567.597581134577	893.921513804009	41.526959565638	536.829855454919	1063.847593796687	98.317811102420	571.130936046725	977.602409001095	36.676836427336	611.328392221810	1184.954594721882	48.638118418686	598.910464062408	558.118914678126	150.657015439766	424.346125198053	617.307309932321	101.930790248867	348.536847021321	720.297396182696	121.031679969088	366.689073733404	806.261600642088	31.865334893831	351.099153641779	931.384375362940	1085.564056782038	191.299993360781	1146.180752277142	936.316107594460	198.271907768155	850.842773823719	1092.743765988407	770.315854101315	957.382789935667	854.130932626510	765.335479649959	
38	31.486642857143	742.172243277414	998.672900352471	506.481601375058	892.033343521884	1433.741403355009	321.810802521987	1000.031097976652	1369.108107520605	480.848771310057	914.938910989333	1436.421237653804	655.283496861915	874.782569230824	1492.895890782554	475.444384633878	973.175266385111	941.877678207641	617.184291348041	952.869148610821	962.076010962320	342.793190228813	1031.283890136642	748.495355684964	580.557311727372	962.706859472382	632.994068283762	642.202195624998	1040.846485751724	588.342955101324	557.730046043834	1049.408906484938	499.375386123309	562.744311035212	991.764795357259	740.296931840825	364.999472412723	901.218954772468	626.211337229039	304.523768095019	989.141080287974	541.004696503016	358.695341981851	979.765499246044	454.777232934142	356.455577028488	909.340701612123	398.007551909157	356.312815373697	765.885921181462	356.317181557548	315.224009184923	752.285842942137	230.459965550148	377.112118056337	1027.030297426912	409.244119693845	571.271661269333	964.334164683301	300.214333635015	632.793089788316	1011.534101521082	209.406889492467	568.150584747203	886.763089964777	41.528028458663	536.943780854830	1056.797207385252	98.093517228242	571.369514873867	970.404989964210	36.612956732897	611.466476034904	1177.836042027422	48.271007315171	599.053307606764	561.799286890731	167.411721220408	423.647937975064	618.113893558677	114.764841350033	347.992785706286	722.319059735703	127.571944617566	366.017489242459	801.919793151777	31.247880829121	350.714636269470	925.454888268212	1084.721806052093	195.339585671261	1132.262207647022	923.810515127940	199.866451389270	859.845129361337	1092.178699164394	773.842772460481	978.009619156035	859.292306444633	767.017496064850	
39	31.498714285714	742.113094207325	999.206766447584	509.546642316847	890.190679549334	1434.225551397867	323.669877059294	999.930926895365	1369.560199129868	481.583426442966	916.721949236479	1436.693683021828	656.992643488743	874.787410901796	1493.326725188986	477.698610954813	973.860738466099	942.609837633964	618.348627821120	952.026668035695	962.397627089483	344.144130722526	1029.558603838240	747.496050404585	582.972356010702	959.309491160332	633.019979332221	644.188915500310	1036.833371518733	587.541496633807	559.637151503726	1044.181305948889	498.737888020162	564.291268945685	996.772578973474	743.244414552066	366.708753546007	911.260874072593	626.935326065265	304.892319690360	1001.878393620903	543.899634198432	359.164340999988	994.069027264782	456.544497046716	356.274919944997	922.031291806886	399.697196856590	356.114632961660	777.149182572727	362.769258595201	315.103272522342	759.552135105716	237.376960513300	376.736592883440	1021.487064184522	408.803087330785	572.649671690816	958.338782591293	299.879244472723	633.786293437310	1005.042353351786	209.063146632276	568.770979946966	879.570978013599	41.554674041772	537.062464715599	1049.737090174192	97.874558090497	571.614143378738	963.176725409590	36.550290251555	611.605095479524	1170.699525379628	47.820075381958	599.192736014958	566.956687484410	183.545376068462	423.166229013924	620.507580647328	127.604385175739	347.511382341594	725.628618670650	134.611973013808	365.429912991889	799.237235903417	31.155308889849	350.064789787026	919.252879104678	1083.721995856462	199.308823478345	1117.227066262388	911.534866640503	201.508340722101	869.218426700601	1091.613995798542	777.204469171145	998.837296583880	865.103520280856	768.461148022793	
